<?xml version="1.0" encoding="UTF-8"?>
<!-- Generator: Adobe Illustrator 27.9.0, SVG Export Plug-In . SVG Version: 6.00 Build 0)  -->
<svg version="1.1" id="Layer_1" xmlns="http://www.w3.org/2000/svg" xmlns:xlink="http://www.w3.org/1999/xlink" x="0px" y="0px" viewBox="0 0 55.1 46.8" style="enable-background:new 0 0 55.1 46.8;" xml:space="preserve">
<style type="text/css">
	.st0{fill:url(#SVGID_1_);}
</style>
<linearGradient id="SVGID_1_" gradientUnits="userSpaceOnUse" x1="0" y1="23.4073" x2="55.0558" y2="23.4073">
	<stop offset="0" style="stop-color:#1BB6E9"/>
	<stop offset="1" style="stop-color:#38B556"/>
</linearGradient>
<path class="st0" d="M42.8,1.8H0.9C0.4,1.8,0,1.4,0,0.9v0C0,0.4,0.4,0,0.9,0l41.9,0c0.5,0,0.9,0.4,0.9,0.9v0  C43.8,1.4,43.3,1.8,42.8,1.8z M50.7,5.4L50.7,5.4c0-0.5-0.4-0.9-0.9-0.9H0.9C0.4,4.5,0,4.9,0,5.4v0c0,0.5,0.4,0.9,0.9,0.9h48.9  C50.3,6.3,50.7,5.9,50.7,5.4z M35.5,9.9L35.5,9.9C35.5,9.4,35,9,34.5,9H0.9C0.4,9,0,9.4,0,9.9v0c0,0.5,0.4,0.9,0.9,0.9h33.6  C35,10.8,35.5,10.4,35.5,9.9z M22.4,14.4L22.4,14.4c0-0.5-0.4-0.9-0.9-0.9H14c-0.5,0-0.9,0.4-0.9,0.9v0c0,0.5,0.4,0.9,0.9,0.9h7.4  C21.9,15.3,22.4,14.9,22.4,14.4z M22.4,18.9L22.4,18.9c0-0.5-0.4-0.9-0.9-0.9H14c-0.5,0-0.9,0.4-0.9,0.9v0c0,0.5,0.4,0.9,0.9,0.9  h7.4C21.9,19.8,22.4,19.4,22.4,18.9z M37.2,23.4L37.2,23.4c0-0.5-0.4-0.9-0.9-0.9H14c-0.5,0-0.9,0.4-0.9,0.9v0  c0,0.5,0.4,0.9,0.9,0.9h22.3C36.8,24.3,37.2,23.9,37.2,23.4z M22.4,27.9L22.4,27.9c0-0.5-0.4-0.9-0.9-0.9H14c-0.5,0-0.9,0.4-0.9,0.9  v0c0,0.5,0.4,0.9,0.9,0.9h7.4C21.9,28.8,22.4,28.4,22.4,27.9z M22.4,32.4L22.4,32.4c0-0.5-0.4-0.9-0.9-0.9H14  c-0.5,0-0.9,0.4-0.9,0.9l0,0c0,0.5,0.4,0.9,0.9,0.9h7.4C21.9,33.3,22.4,32.9,22.4,32.4z M22.4,36.9L22.4,36.9c0-0.5-0.4-0.9-0.9-0.9  H14c-0.5,0-0.9,0.4-0.9,0.9v0c0,0.5,0.4,0.9,0.9,0.9h7.4C21.9,37.8,22.4,37.4,22.4,36.9z M22.4,41.4L22.4,41.4  c0-0.5-0.4-0.9-0.9-0.9H14c-0.5,0-0.9,0.4-0.9,0.9l0,0c0,0.5,0.4,0.9,0.9,0.9h7.4C21.9,42.3,22.4,41.9,22.4,41.4z M32.4,45.9  L32.4,45.9c0-0.5-0.4-0.9-0.9-0.9H14c-0.5,0-0.9,0.4-0.9,0.9v0c0,0.5,0.4,0.9,0.9,0.9h17.5C32,46.8,32.4,46.4,32.4,45.9z M47.1,0  c-0.5,0-0.9,0.4-0.9,0.9s0.4,0.9,0.9,0.9s0.9-0.4,0.9-0.9S47.7,0,47.1,0z M54.1,4.5c-0.5,0-0.9,0.4-0.9,0.9s0.4,0.9,0.9,0.9  c0.5,0,0.9-0.4,0.9-0.9S54.6,4.5,54.1,4.5z M38.9,10.8c0.5,0,0.9-0.4,0.9-1c0-0.5-0.4-0.9-1-0.9c-0.5,0-0.9,0.4-0.9,1  C38,10.5,38.4,10.9,38.9,10.8z M35.5,9.9L35.5,9.9C35.5,9.4,35,9,34.5,9H0.9C0.4,9,0,9.4,0,9.9v0c0,0.5,0.4,0.9,0.9,0.9h33.6  C35,10.8,35.5,10.4,35.5,9.9z M25.2,15.3c0.5,0,0.9-0.4,0.9-1c0-0.5-0.4-0.9-1-0.9c-0.5,0-0.9,0.4-0.9,1  C24.2,15,24.7,15.4,25.2,15.3z M25.2,19.8c0.5,0,0.9-0.4,0.9-1s-0.4-0.9-1-0.9c-0.5,0-0.9,0.4-0.9,1S24.7,19.8,25.2,19.8z   M40.6,24.3c0.5,0,0.9-0.4,0.9-1c0-0.5-0.4-0.9-1-0.9c-0.5,0-0.9,0.4-0.9,1C39.7,24,40.1,24.3,40.6,24.3z M25.2,28.8  c0.5,0,0.9-0.4,0.9-1s-0.4-0.9-1-0.9c-0.5,0-0.9,0.4-0.9,1S24.7,28.8,25.2,28.8z M25.2,33.3c0.5,0,0.9-0.4,0.9-1  c0-0.5-0.4-0.9-1-0.9c-0.5,0-0.9,0.4-0.9,1C24.2,32.9,24.7,33.3,25.2,33.3z M25.2,37.8c0.5,0,0.9-0.4,0.9-1c0-0.5-0.4-0.9-1-0.9  c-0.5,0-0.9,0.4-0.9,1C24.2,37.4,24.7,37.8,25.2,37.8z M25.2,42.3c0.5,0,0.9-0.4,0.9-1c0-0.5-0.4-0.9-1-0.9c-0.5,0-0.9,0.4-0.9,1  C24.2,41.9,24.7,42.3,25.2,42.3z M35.2,46.8c0.5,0,0.9-0.4,0.9-0.9S35.7,45,35.2,45c-0.5,0-0.9,0.4-0.9,0.9  C34.3,46.4,34.7,46.8,35.2,46.8z"/>
</svg>